/* XPM */
static const char *code_poslugi[] = {
/* columns rows colors chars-per-pixel */
"90 74 256 2",
"   c #000000",
".  c #02000A",
"X  c #0B050D",
"o  c #050311",
"O  c #090514",
"+  c #0D0A14",
"@  c #0D0B1C",
"#  c #04041B",
"$  c #110D1A",
"%  c #120C13",
"&  c #10100B",
"*  c #15111D",
"=  c #1B151E",
"-  c #090D12",
";  c #0C0C22",
":  c #050826",
">  c #0D102A",
",  c #100E21",
"<  c #131224",
"1  c #13142B",
"2  c #1B192A",
"3  c #1A1726",
"4  c #151933",
"5  c #151C3A",
"6  c #191B34",
"7  c #161A37",
"8  c #0F1433",
"9  c #00202C",
"0  c #1D203D",
"q  c #002431",
"w  c #211B19",
"e  c #211D2B",
"r  c #211A22",
"t  c #201E32",
"y  c #202016",
"u  c #27212C",
"i  c #2A2533",
"p  c #292637",
"a  c #322D3A",
"s  c #322B36",
"d  c #313121",
"f  c #3E3D29",
"g  c #37323C",
"h  c #38272A",
"j  c #151B43",
"k  c #003C52",
"l  c #1B2242",
"z  c #1D2649",
"x  c #202443",
"c  c #252A4A",
"v  c #292B46",
"b  c #2B3357",
"n  c #3A3442",
"m  c #3A3747",
"M  c #363957",
"N  c #2A2F4E",
"B  c #333C63",
"V  c #304D2D",
"C  c #21595A",
"Z  c #38426A",
"A  c #3C4977",
"S  c #104D52",
"D  c #403F2A",
"F  c #48373A",
"G  c #442C38",
"H  c #423D49",
"J  c #453945",
"K  c #4C3E4B",
"L  c #42412C",
"P  c #525137",
"I  c #53453F",
"U  c #46404C",
"Y  c #4A434D",
"T  c #4B4552",
"R  c #4E4855",
"E  c #474354",
"W  c #534D5A",
"Q  c #534A55",
"!  c #56505C",
"~  c #59535C",
"^  c #564C4B",
"/  c #494A63",
"(  c #414E7E",
")  c #5B5562",
"_  c #595668",
"`  c #56566E",
"'  c #4F7168",
"]  c #6A5150",
"[  c #615A66",
"{  c #635D6A",
"}  c #615E72",
"|  c #725872",
" . c #636142",
".. c #72704D",
"X. c #7F7D53",
"o. c #66606C",
"O. c #69626C",
"+. c #6B6571",
"@. c #6E6872",
"#. c #656579",
"$. c #716B75",
"%. c #736D79",
"&. c #796E7A",
"*. c #76707B",
"=. c #78727D",
"-. c #716C6E",
";. c #5D755D",
":. c #0066CC",
">. c #48578A",
",. c #56679C",
"<. c #596CA3",
"1. c #666783",
"2. c #7B7581",
"3. c #7E7884",
"4. c #757388",
"5. c #74748F",
"6. c #6877AB",
"7. c #6A6DCE",
"8. c #7378D2",
"9. c #719276",
"0. c #75828F",
"q. c #7A89BB",
"w. c #7B85D7",
"e. c #7A8CC3",
"r. c #824E56",
"t. c #82797C",
"y. c #867569",
"u. c #807558",
"i. c #807A86",
"p. c #837C89",
"a. c #897C96",
"s. c #848258",
"d. c #949263",
"f. c #8F8A74",
"g. c #A5A26E",
"h. c #ADAC74",
"j. c #B5B279",
"k. c #B4A07B",
"l. c #A4946D",
"z. c #86808C",
"x. c #89828E",
"c. c #898384",
"v. c #8B8591",
"b. c #8E8894",
"n. c #89879A",
"m. c #918A95",
"M. c #948E98",
"N. c #908691",
"B. c #96909C",
"V. c #98929D",
"C. c #859989",
"Z. c #8789A7",
"A. c #8B90B3",
"S. c #9A96A6",
"D. c #9A9BB5",
"F. c #898FAC",
"G. c #9CA0B6",
"H. c #AA9596",
"J. c #A39EAB",
"K. c #A297A4",
"L. c #A39EB3",
"P. c #A9A7AB",
"I. c #ACA5B2",
"U. c #AEA8B4",
"Y. c #A4A7B7",
"T. c #ACB6BC",
"R. c #B3ADB9",
"E. c #B0AAB6",
"W. c #B6B0BC",
"Q. c #B9BBBC",
"!. c #B5BE84",
"~. c #8696DB",
"^. c #999CDF",
"/. c #8A91D0",
"(. c #9AA6D3",
"). c #8DA3E4",
"_. c #96A7E4",
"`. c #9BB5E8",
"'. c #98BAF3",
"]. c #A7A8C7",
"[. c #B9B4C3",
"{. c #AFB3D4",
"}. c #A7B5EB",
"|. c #B6B8E7",
" X c #A6AFE7",
".X c #B99FC7",
"XX c #BDCC91",
"oX c #9DCBFC",
"OX c #BBC8D5",
"+X c #A5C5EC",
"@X c #A4D2FF",
"#X c #ACD5FE",
"$X c #AED1F0",
"%X c #BCC2E6",
"&X c #B3CCF6",
"*X c #BED4EA",
"=X c #B2D5FD",
"-X c #B4D9FF",
";X c #BBDDFE",
":X c #B6D7F4",
">X c #ACC6F4",
",X c #BCE7F7",
"<X c #CFB1B9",
"1X c #C89FA9",
"2X c #C6BACA",
"3X c #D1BCCD",
"4X c #E1BFC9",
"5X c #C6C384",
"6X c #D6D384",
"7X c #D6D38F",
"8X c #DED78C",
"9X c #D8D791",
"0X c #E7DF94",
"qX c #E7E39A",
"wX c #EEE79C",
"eX c #EFEB9C",
"rX c #E7E394",
"tX c #F0EC9D",
"yX c #EFEFA4",
"uX c #F4EEA4",
"iX c #F7F4A5",
"pX c #F7F7AB",
"aX c #F9F8A7",
"sX c #FEFBAC",
"dX c #FFFFB5",
"fX c #D6DFA5",
"gX c #C9C4CC",
"hX c #C4CCD5",
"jX c #C9C8D3",
"kX c #CCD0D5",
"lX c #D3CAD7",
"zX c #D3D2D9",
"xX c #DEC1CD",
"cX c #C8CAE7",
"vX c #C1DEFE",
"bX c #C3D8F7",
"nX c #DBD6E6",
"mX c #C3E1FF",
"MX c #CBE5FE",
"NX c #C0EEF9",
"BX c #D4E9FF",
"VX c #DCEDFF",
"CX c #D6E3FC",
"ZX c #C8F1F8",
"AX c #EEC9D4",
"SX c #E6DAE8",
"DX c #F3DAE8",
"FX c #E6EBFA",
"GX c #E3F1FF",
"HX c #EBF5FE",
"JX c #FAEBF8",
"KX c #F3F9FF",
"LX c #FCF2FD",
"PX c #FEFEFF",
"IX c #F5F4FB",
"UX c #F0E2EC",
/* pixels */
"PXPXPXPXPXPXPXPXPXPXPXPXPXPXPXPXPXPXPXPXPXPXPXPXPXPXPXPXPXPXPXPXPXPXPXPXPXPXPXPXPXPXPXPXPXPXPXPXPXPXPXPXPXPXPXPXPXPXPXPXPXPXPXPXPXPXPXPXPXPXPXPXPXPXPXPXPXPXPXPXPXPXPXPXPXPXPXPXPXPX",
"PXPX9.C k k k k k k k k k k k k k k k k k k k k k k k k k k k k k k k k k k k k k k k k k k k k k k k k k k k k k k k k k k k k k k k k k k k k k k k k k k k k k k k k k k S 9.PXPX",
"PX9.9.XXdXdXdXdXdXdXdXdXdXdXdXdXdXdXdXdXdXdXdXdXdXdXdXdXdXdXdXdXdXdXdXdXdXdXdXdXdXdXdXsXdXdXdXdXdXdXdXdXdXdXdXdXdXdXdXdXdXdXdXdXdXdXdXsXdXdXdXdXdXdXdXdXdXdXdXsXdXdXdXdXdXdXfX' 9.PX",
"PXC XXpXsXsXsXsXsXsXsXsXsXsXsXsXsXsXsXsXsXsXsXsXsXsXsXsXsXsXsXsXsXsXsXsXsXsXsXsXsXsXsXsXsXsXsXsXsXsXsXsXsXsXsXsXsXsXsXsXsXsXsXsXsXsXsXsXsXsXsXsXsXsXsXsXsXsXsXsXsXsXsXsXsXsXsXXXC PX",
"PXk sXsXsXsXsXsXsXsXsXsXsXsXsXsXsXsXdXsXsXdXsXsXsXsXsXsXsXsXsX$.-.O.O.@.@.@.@.O.@.+.@.-.@.+.$.+.U p i 2 2 0 u u u s R ) +.$.@.@.@.@.@.@.@.@.@.@.@.@.+.@.O.@.@.sXsXsXsXsXsXsXsXaXk PX",
"PXk sXsXsXsXsXsXsXsXsXsXsXsXsXsXsXsXsXsXsXsXsXsXsXsXsXsXsXsXaX+.+.+.@.+.+.+.+.+.+.O.+.+.+.+.{ H 2 1 1 2 p m m m g s i t a E [ @.@.+.+.O.O.O.+.{ +.+.+.O.+.O.$.sXsXsXsXsXsXsXiXiXk PX",
"PXk sXsXsXsXsXsXsXdXsXsXdXsXsXsXsXsXsXsXsXsXpXdXsXsXsXsXsXsXsX$.+.@.@.+.+.+.+.+.+.+.+.+.+.+.} v 2 6 W z.B.B.B.n.z.%.} / M n a a J } $.+.+.+.+.+.+.+.+.+.+.+.-.sXsXsXdXaXsXsXiXiXk PX",
"PXk sXsXsXsXdXsXsXsXsXsXsXsXsXsXsXsXsXsXpXsXpXsXsXsXdXsXsXsXdX$.+.@.+.+.+.+.+.+.O.+.+.+.+.@._ B v a 1.E.W.R.Y.J.S.Z.p.4.#.! Z v e 6 R { &.+.+.+.+.+.+.+.+.+.@.sXsXsXsXsXsXpXiXuXk PX",
"LXk sXsXsXsXsXsXsXsXsXsXsXsXsXpXsXsXsXsXsXsXsXsXsXsXsXsXsXsXsX-.+.@.%.+.#.+.+.#.+.+.+.+.+.@._ b p t ) 5.S.I.J.S.S.n.n.4.1.} ( E m x 8 t H } @.+.+.+.+.+.+.+.@.sXsXsXsXsXdXpXiXuXk PX",
"PXk sXsXsXsXsXsXsXsXsXsXsXsXsXsXsXaXdXaXsXsXsXsXsXsXsXsXsXsXsX&.+.$.2.@.@.@.@.@.+.@.@.+.$.@.! c : o 2 R #.a.n.Z.Z.z.3.4.#.} ` / M N x > # 6 +.%.@.@.+.@.@.@.%.sXdXsXsXsXsXpXiXwXk PX",
"PXk sXsXsXsXdXsXsXsXsXsXdXpXsXsXsXdXsXsXsXsXsXsXsXsXsXsXsXsXsX*.+.2.=.+.@.@.@.@.@.@.@.@.@.#./ c O o O ; m R #.4.4.4.4.1.} ` / Z M N l 7 : : 1 _ @.$.@.@.@.@.%.sXsXsXsXsXsXpXiXwXk PX",
"PXk pXsXsXsXsXsXsXsXsXsXsXpXpXsXsXsXsXsXsXsXsXsXsXsXsXsXsXsXsX*.$.3.2.@.@.@.@.@.@.$.@.@.@.$.Z x O . O @ : ; n / #.` } ` ` ` / / b c j 8 : : : # _ %.@.@.@.@.-.sXsXsXsXsXsXpXiXtXk PX",
"PXk sXsXsXaXsXsXsXsXsXsXsXpXsXsXsXsXaXsXsXsXsXaXpXsXsXsXsXsXaX*.%.3.2.$.%.@.@.%.%.%.@.@.+.+.Z 7 O . . ; , 1 ; x B ` } ` ` / Z M b c 5 > : : : # _ %.$.%.@.%.*.sXpXsXsXsXaXpXiXwXk PX",
"PXk sXpXaXaXaXaXaXaXaXaXpXpXaXiXaXaXaXaXaXaXaXaXsXiXsXiXsXaXaX=.2.3.2.2.%.%.=.{ W n 2 + . c B 1 o . X ; , , 1 x N Z ,.e.A.,.Z M N N x 5 j 5 l / %.@.@.@.@.@.*.aXiXpXsXaXaXpXiXtXk PX",
"PXk pXpXaXaXaXaXaXaXaXaXaXaXaXaXaXaXaXaXaXaXaXaXaXaXiXpXaXaXaX*.2.3.3.2.%.) s %     .   O z c ; . . O < ; 1 7 c b A <.A.F.6.Z c c c c B >.B m %.$.$.%.$.$.$.*.aXaXaXaXaXaXaXiXtXk PX",
"PXk pXpXaXiXaXaXiXiXaXiXiXiXaXiXiXaXaXaXiXaXaXaXiXiXiXiXiXiXiX=.2.3.3.3.#.3     . . .   o 7 6 @ . o , ; , 1 7 N b ( <.A.Z.,.c 7 4 4 8 B A 5 #.%.%.$.%.%.*.-.*.iXiXaXiXiXiXiXiXwXk PX",
"PXk pXpXiXiXiXaXiXiXiXiXiXiXiXiXiXiXiXiXiXiXiXiXiXiXiXiXiXiXiX=.p.p.p.2.) 3 . .   . . . . , , .   o ; ; 1 6 0 b B >.6.A.A.>.e * $ @ 7 ( b 1 %.%.%.%.%.%.$.%.*.iXiXiXiXiXiXiXiXeXk PX",
"PXk pXpXaXiXaXaXiXiXiXiXiXiXiXiXiXiXiXiXiXiXiXiXiXiXiXiXiXiXiXt.p.3.2.2.%.W O o       . . O . O O O ; 1 2 0 c M Z <.e.(.(.A > + o # b >., * O.i.%.&.%.%.%.%.*.aXiXiXiXiXaXiXiXeXk PX",
"PXk pXpXiXiXiXiXiXiXiXaXiXiXiXiXiXiXiXiXiXiXiXiXiXiXaXaXiXiXiXi.3.3.3.3.%.=.{ e o . .     . . @ $ , 1 < 6 l b B ( <.~.{.(.Z , @ . 4 >.A .   < ) 2.%.%.%.%.*.*.iXiXiXiXiXiXiXiXeXk PX",
"PXk iXiXiXiXiXiXiXiXiXaXiXiXiXiXiXiXiXiXiXiXiXiXiXaXiXaXiXiXiX9.p.M.m.2.%.=.2.2.U O o .   . . O ; 1 6 1 l l b Z >.e.(. X6.z ; @ o c ,.N .       ~ 2.=.%.*.*.=.aXiXiXiXiXiXiXiXeXk PX",
"PXk iXiXiXiXiXiXiXiX:.:.:.:.:.:.:.:.:.:.:.:.:.:.:.:.:.:.:.:.:.:.:.:.m.&.%.%.%.=.$.p $ $ . . . O @ < 4 0 c N B A >.e.{.(.>.7 , o @ A >.< .       3 =.=.=.%.*.=.aXiXiXiXiXaXaXaXeXk PX",
"PXk iXiXiXiXiXiXiXaX:.PXPXPXKXKXKXHXHXHXHXGXGXGXVXVXBXBXBXMXMXMXmX:.b.=.%.2.=.=.{ E e $ $ % . . O ; < 4 l b Z >.<.e.`.e.b > @ . l >.b o o . . .   u =.=.=.=.=.aXiXiXiXiXiXiXiXeXk PX",
"PXk iXiXiXiXiXiXaXaX:.PXUXkXkXkXkXkXhXhXhXhXhXhXOXOXOXOXOXOXOXNXmX:.b.2.=.=.=.$.) { n 3 $ < * .   o , 1 4 c b A ,.e./.<.z < @ @ B ( 4 O o     . .   R i.=.2.2.iXiXiXiXiXiXiXiXwXk PX",
"PXk iXiXiXiXiXiXaXiX:.KXkXP.T.Q.T.T.T.T.T.Y.T.G.Y.G.P.G.D.D.P.*XmX:.b.=.=.=.=.) ) &.{ a * $ < 6 3 . . O @ 4 l M A <.<.A l 4 4 4 Z Z < < @   .   .   m i.=.%.2.aXiXiXiXiXaXiXiXwXk PX",
"PXk iXiXiXiXiXiXiXiX:.KXkXT.,X,X,X:X$X+X+X`.).(.w.).w.w.7.7.P.*XmX:.S.i.=.2.@.U ) 2.3.W i $ + @ i v 3 .   . O 6 b ( A b x 0 x l Z b 1 0 > . . . O O v =.t.=.=.iXiXiXiXiXiXiXiXeXk PX",
"PXk aXiXiXiXiXiXiXiX:.KXkXT.ZX,X,X:X$X+X+X`._.).).e.w.w.8.7.P.hXmX:.J.p.=.3.) m ) %.3.@.H p 3 < % u n m 2 %     . ; 0 x 0 0 0 x N z 0 0 8 > : : : ; s =.2.=.0.aXiXiXiXiXiXiXiXeXk PX",
"PXk aXiXiXiXiXiXiXiX:.KXkXQ.ZXZX,X:X:X$X+X`.`.(.).w.w.w.8.7.P.*XmX:.J.x.2.2.Q m W { @.2.O.Y h w % . $ p E ` M $         . # ; < > 5 8 8 7 0 5 5 5 : M z.2.2.t.aXiXiXiXiXaXiXiXrXk PX",
"PXk iXiXiXiXiXiXiXiX:.KXkXOX,XZX,X,X$X+X+X`._.).).w.w.w.8.7.P.*XmX:.J.v.=.%.H n R ) { @.y.] ^ F a e $ X * N 1.5.#.2 +     O @ > 8 5 l l 0 5 l l l 5 _ p.2.3.i.aXiXiXiXiXaXiXuXeXk PX",
"PXk iXiXiXiXiXiXiXiX:.HXkXT.,X,X,X$X$X+X+X`.`.).).e.w.w.8.7.P.*XvX:.J.M.2.%.a a H R ! ] &.L.L.p.) H H p $ % $ 2 / Z.D.#.g % . + > 8 0 0 0 l z l N #.z.2.3.3.i.aXiXiXaXaXiXaXiXrXk PX",
"PXk iXiXiXiXiXiXiXiX:.GXkXP.T.T.T.T.T.T.Y.P.Y.Y.Y.Y.G.G.D.D.P.*XvX:.U.M.3.&.g s n H T [ A.S.].[.m.{ R H p * 3 $ X . u _ 1.Z 3 * @ > > > 8 8 4 ; %.n.2.3.3.2.i.aXiXiXiXaXaXiXuXwXk PX",
"PXk iXaXiXiXiXiXiXiX:.HXZXhXhXhXhXhXhXhXOXhXhXOXOXOXOXOXOXOXOXbXvX:.W.p.3.=.J p s n ^ S.Z.A.G.{.3X[.m.{ U 2 2 u 3 3 3 % + $ $ $ 3 + - @ - - + W S.3.3.3.2.i.c.iXiXiXiXaXiXiXyXwXk PX",
"PXk iXiXiXiXiXiXiXiX:.GXHXFXGXFXVXVXVXVXVXZXBXBXZXMXMXMXmXmX,X;X;X:.W.p.p.2.W J s p -.I.L./.].jXcXhXlX[.x.m e 2 u F H a r i n U o.@.b.M.3.$.b.I.M.B.B.S.v.c.0.iXiXiXiXiXiXiXyXwXk PX",
"PXk aXaXaXaXiXiXiXiX:.GXVXHXIXHXVXVXVXBXVXKXHXBXMXMXMXMXGXHXCXvX;X:.E.p.3.i.O.R I h =.zXIXIXLXSX5.,.{.LXnXb.g s U Y T r   U 2XV.m.p.3.@.V V 9.9.P.S.B.b.i.p.p.aXaXaXiXiXiXiXtXeXk PX",
"PXk iXiXiXiXiXiXiXiX:.GXHXPXPXPXHXCXBXVXPXPXPXPXbXMXMXKXPXPXPXbX;X:.S.p.i.p.%.[ u.] =.UXLXLXLXJX.X].SXPXLX[.U Y N.m.=.^ 3 s P.[.{.[.L.0.' C.f.0.Y.R.Z._ =.p.p.aXiXaXiXiXiXiXiXeXk PX",
"PXk iXiXiXiXiXiXiXiX:.BXKXPXPXPXPX XBXVXPXPXPXPX XvXmXPXPXPXPX|.&X:.b.p.i.i.2.y.t.{ ^ SXLXLXLXLXJXJXJXJXLXH.i Y H.<XxX<XK.H.S.zXCXSXcXD.` 0.' F.|.5._ 2.p.p.p.iXiXiXiXiXiXiXeXwXk PX",
"PXk aXaXiXiXiXiXiXiX:.BXHXPXPXPXJX_.BXVXPXPXPXPX^.MXMXKXPXPXPX X>X:.3.3.p.i.i.f.c.i.^ H.LXJXJXLXLXJXDXUXxXI e n ) <XAXDXDXLXJXDXDXcXCXCXG.0.F.|.].5.=.p.p.p.x.iXiXiXiXiXiXiXeXwXk PX",
"PXk iXiXiXiXiXiXiXiX:.BXBXHXIXFX/.&XCXMXGXFXJX^._.mXmXMXFXLX|.8.;X:.[.B.p.a.3.f.2.m.%.Q lXDXDXDXAXAX4X2Xa.% p g h y.1X4XAXAXAX4X1Xc.A.%XcXOX|.].1.%.z.0.p.p.x.iXuXiXiXuXiXiXeXwXk PX",
"PXk aXiXuXiXuXiXiXiX:.BXBXBX}._.;XMXCXMXMX>X_.>XmX;XmXmX&X_.`.-X-X:.zXSXUXzXR.l.c.P.S.@.F t.<X3X.Xa.| h % < e p t w G ] r.r.r.] F Q v.a.{.|.D.p.3.x.z.z.z.p.c.iXiXiXiXiXiXiXtXwXk PX",
"PXk iXiXiXiXiXiXiXiX:.MXCXBXVXCXMXMXMXMXMXBXBXmXmXmX;X;XvXMXvX=X-X:.p.M.S.U.gXk.O.K.gXgX=.F +.$.| K h < e s g n n p u h G G G K { M.I.S.n.Z.S.M.z.z.z.z.z.z.c.iXiXiXiXiXiXiXeXeXk PX",
"PXk iXiXuXiXiXuXiXiX:.MXBXKXPXPXCXMXMXMXKXPXPXIX;X;X;XGXPXPXPX=X-X:.x.p.p.i.3.y.=.=.W %.I.S.$.R H H m H R [ { { [ | ) ) ~ | | p.J.R.R.S.m.b.v.p.z.z.z.z.z.z.x.iXiXuXuXiXiXiXeXeXk PX",
"PXk iXiXiXiXiXiXiXuX:.MXHXPXPXPXIX XmXBXPXPXPXPX}.;X;XPXPXPXPX|.#X:.p.x.z.z.p.f.v.v.m.+.U W z.3.[ ~ =.=.p.v.a.v.a.a.N.N.m.V.K.I.R.I.p.{ v.R.b.p.v.p.z.z.x.p.x.iXiXiXiXiXiXiXeXwXk PX",
"PXk iXaXiXiXiXiXiXiX:.MXHXPXPXPXIX).mXBXPXPXPXPX^.;X;XPXPXPXPX|.'.:.p.x.z.a.v.f.p.x.i.[ @.S.M.$.Y i +.2XE.I.I.U.I.I.E.R.W.W.R.U.S.@.R %.v.[.v.p.z.z.z.z.x.x.x.iXiXuXiXuXiXiXeXeXk PX",
"PXk iXiXiXiXiXiXiXiX:.vXMXPXPXPX_. X;XmXHXPXPXcX~.-X-XBXPXPXFXw.#X:.v.x.p.p.p.f.p.v.v.3.U W p.K.I.=.{ U.W.W.W.W.W.W.W.R.I.P.V.z.) R =.m.x.gXv.v.x.v.v.x.x.x.N.iXiXiXiXiXiXiXeXwXk PX",
"PXk iXiXiXiXiXiXiXiX:.vXvX:X X^._.vX;X;X;X}.^.~.=X;X-X-X>X_.~.'.#X:.v.p.p.v.f.f.x.v.x.v.v.o.g J [ *.2.v.m.B.B.B.V.m.N.p.%.{ E g ! p.b.p.p.lXm.p.x.x.x.x.v.x.v.iXuXiXiXiXiXiXeXwXk PX",
"PXk iXiXiXiXiXiXiXiX:.;XmX;X;X;X;X;X;X;X;X;X-X;X-X-X-X-X-X#X#X#X#X:.v.x.v.t.f.N.p.v.p.p.3.3.) H a n U R ~ [ [ { _ ) W T n a g W i.3.p.p.p.zXB.x.v.v.x.v.v.x.N.iXiXiXiXuXiXiXeXeXk PX",
"PXk iXiXtXiXuXiXuXiX:.;XmXKXPXPXMX-X;X-XVXPXPXVX-X-X#XMXPXPXHX#X@X:.z.b.z.z.i.b.p.p.=.%.+.[ ) R n s i s p s s g s s s i p a Y W ~ { $.%.S.jXv.v.v.v.v.v.v.v.N.iXuXiXiXiXuXiXtXwXk PX",
"PXk iXuXiXiXiXiXiXiX:.;XVXPXPXPXFX}.;XMXPXPXPXPX}.=X#XKXPXPXPX|.@X:.v.p.x.v.p.p.v.i.=.$.{ ) R H n a u = r 3 3 r e = w r i n H T ! { +.$.E.zXx.b.b.v.v.v.v.v.N.uXiXuXiXuXiXuXuXwXk PX",
"PXk iXiXuXiXuXiXiXiX:.-XHXPXPXPXPX).-XmXPXPXPXPX_.#X#XPXPXPXLX|.'.:.v.v.p.v.v.x.p.p.p.3.%.+.{ W R R T U H n n n n n H T R ~ ) { %.%.2.p.R.2XS.z.x.v.v.b.m.N.m.iXiXiXiXiXiXiXtXqXk PX",
"PXk iXiXiXiXiXiXiXiX:.=XMXPXPXPX|.).=X-XPXPXPXFXw.#X#XVXPXPXPX~.oX:.v.N.v.p.p.v.i.z.p.i.2.$.+.| +.=.2.2.%.&.=.%.=.%.=.2.2.p.p.v.x.J.E.J.J.U.I.U.W.B.v.b.m.b.m.iXiXiXiXiXiXiXtXqXk PX",
"PXk iXiXuXiXiXuXiXuX:.=X=X:X|.^./.@X=X#X=X%X X8.'.@X@X@X&X|.8.).oX:.m.v.v.v.x.p.p.p.i.i.2.2.i.x.b.m.m.m.m.m.b.m.m.m.b.m.m.m.b.b.M.2XlXlXnXSXJXUXnXQ.v.b.m.N.M.iXuXiXuXiXiXiXtXwXk PX",
"PXk uXiXiXiXiXuXiXiX:.=X-X#X=X=X=X#X#X=X#X#X@X@X@X@X@X@XoX@X@X@XoX:.N.N.b.p.i.x.x.x.x.v.m.m.m.m.b.m.b.b.m.b.b.b.b.m.b.m.b.b.b.m.N.p.S.I.U.R.U.P.m.i.m.b.m.m.m.iXiXiXiXuXiXiXtX0Xk PX",
"PXk iXiXuXiXiXiXiXiX:.:.:.:.:.:.:.:.:.:.:.:.:.:.:.:.:.:.:.:.:.:.:.:.M.m.M.m.m.m.M.m.m.M.M.M.M.M.M.M.M.M.M.M.M.M.M.M.M.M.M.M.M.M.M.m.p.i.*.*.&.*.x.M.M.M.M.M.M.iXuXiXiXiXiXiXtXrXk PX",
"PXk iXiXiXiXiXiXiXuXiXiXiXiXiXuXiXiXuXiXiXiXiXiXiXiXiXiXiXiXuXiXiXiXiXiXiXiXiXiXiXiXiXiXiXiXiXuXiXiXiXiXiXuXiXiXiXuXiXiXiXiXiXiXiXiXiXiXiXiXiXiXiXiXiXiXiXiXiXiXiXiXiXiXtXiXeXwXk PX",
"PXk iXiXiXiXiXiXiXiXiXiXiXiXiXiXiXiXiXiXuXiXiXiXiXiXiXiXiXuXiXiXiXiXiXiXiXiXiXiXiXiXiXiXiXiXiXiXiXiXiXiXiXiXiXiXiXiXiXiXiXiXiXuXiXiXiXuXiXuXiXiXiXiXiXiXiXuXiXiXiXiXiXiXiXiXeXrXk PX",
"PXq L L ..iXP L D j.iXs.y     P 8XiXiXiX..D L L D L L d.iXiXiXiXL L D D L L L ..iXiXu.y     P 7XiXiX0X..%   & ..0XiXiXD L L D D L L d.g.D D 5X5XL L s.L D L L L ..5XD F ..iX9.D - gX",
"PX>     D j.      iXs.          w 0XiXiXL             s.iXuXiXuX              L iXs.          y 0XiXL           D iXiX        .     s.j.    d.j.    s.          L j.    D tXy     Q.",
"PX9     L j.      iXy     s.y     d.iXiXL     y &     s.uXiXuXiX      d y     L iXw     s.y     d.7X      d.    . 7XiX      d &     s.iX    s.j.    s.      d D ..j.    L 5X      Q.",
"PX8     L j.      iX      j.L     s.iXiXL     s.L     s.iXiXiXiX      j.s.    L iX      j.L     s.j.      iX      j.iX      j.L     s.iXd   P g.    g.      j.iXiXj.    L s.      Q.",
"PX8     L j.      iX      j.L     s.uXiXy     s.L     s.iXiXuXiX      j.s.    L iX      j.L     s.j.      iX      j.iX      j.L     s.iX .  L s.    j.      j.iXiXj.    L d       <X",
"PX9     d  .    L iX      j.L     u.iXiX      d.L     u.iXiXiXiX      j.s.    L iX      j.L     s.j.      iXD D L 5XiX      j.L     s.iXs.    s.    7X      j.iXiXj.    y         Q.",
"PX9         &  .0XiX      j.L     s.iXiX      j.L     s.uXiXiXiX      j.s.    L iX      j.L     s.j.      iXiXiXiXaXiX      j.L     s.iXj.    ..    iX      j.iXaXj.              Q.",
"PX9     y d     ..iX      j.L     s.iX5X      7XL     s.iXiXiXuX      j.s.    L iX      j.L     s.j.      iXj.j.j.0XiX      j.L     s.iXiX    L     iX      j.iXiXj.        w     Q.",
"PX9     L j.      pX      j.L     s.iXg.    & iXL     s.uXiXiXiX      j.s.    L iX      j.L     s.j.      iX      j.iX      j.L     u.iXiXd   y   L iX      j.iXiXj.      = L     Q.",
"PX8     L j.      iX      j.L     s.iXs.    L iXL     s.iXiXiXiX      j.s.    L iX      j.L     s.j.      iX      j.iX      j.L     s.iXiX .      L iX      j.iXiXj.      ..L     Q.",
"PX8     L j.      iX&     g.d     s.j.y     L s.y     L 7XiXiXiX      j.s.    L iX&     g.d     s.7X      7X      7Xg.      j.D     s.iXiXs.      s.iX      j.iXuXj.      h.D     Q.",
"PX9     L j.      iX..          & 7Xs.                  j.iXiXiX      j.s.    L iX..          & 7XiXy           d iX        qXD     u.iXd.P       g.iX      j.iXiXj.    & yXD     Q.",
"PX9     D qX&     j.0XP       & g.iXs.                  j.iXuXiX      j.s.    D pX0XP       & g.iXiX5Xw       L 7XiX    y d.iXD     s.iXL     & ..iXiX      j.iXiXj.     .yXf     Q.",
"PXk iXiXiXiXiXiXiXiXiXiX7Xj.j.iXiXiXs.    iXiXiXiXj.    j.uXiXiXiXiXiXiXiXiXiXiXiXiXiX7Xj.j.uXiXiXiXuXiX5Xj.5XiXiXiXiXiXiXiXiXiXiXiXiXiXiXiXiXiXuXiXiXiXiXiXiXiXiXiXiXiXiXyXeXrXk PX",
"PXk iXiXiXiXiXiXiXiXiXiXiXiXiXiXiXiXu.    iXiXiXiXj.    j.iXiXuXiXiXuXiXiXiXiXiXiXiXiXiXiXiXiXiXiXiXuXiXiXiXiXiXiXiXuXiXuXiXiXiXiXiXuXiXiXiXiXuXiXuXiXiXiXuXiXiXiXuXuXiXiXuXwXrXk PX",
"PXk wXwXwXwXtXwXwXeXwXeXeXeXeXeXwXwX6Xh.h.tXeXeXeX0Xh.h.0XwXwXwXeXeXeXeXwXeXeXeXwXwXeXtXeXeXwXeXwXtXtXeXtXeXtXwXeXeXeXeXeXeXeXeXwXtXtXtXtXtXtXtXeXeXeXeXeXeXeXeXtXtXtXtXeXeX0X0Xk PX",
"PXS XX0X0X0X0X0X0X0X0X0X0X0X0X0X0X0X0X0XrX0X0X0X0X0X0X0X0X0X0X0X0X0X0X0X0X0X0X0X0X0X0X0X0X0X0X0X0X0X0X0X0X0X0X0X0X0X0X0X0X0X0X0X0X0X0X0X0X0X0X0X0X0X0X0X0X0X0X0X0X0X0X0X0X0X8X!.S PX",
"PX9.' h.6X6X6X6X6X6X6X6X6X6X6X6X6X6X6X6X6X6X6X6X6X6X6X6X6X6X6X6X6X6X6X6X6X6X6X6X6X6X6X6X6X6X6X6X6X6X6X6X6X6X6X6X6X6X6X6X6X6X6X6X6X6X6X6X6X6X6X6X6X6X6X6X6X6X6X6X6X6X6X6X6X6Xj.' 9.PX",
"PXPX9.C k k k k k k k k k k k k k k k k k k k k k k k k k k k k k k k k k k k k k k k k k k k k k k k k k k k k k k k k k k k k k k k k k k k k k k k k k k k k k k k k k k S 9.PXPX",
"PXPXPXPXPXPXPXPXPXPXPXPXPXPXPXPXPXPXPXPXPXPXPXPXPXPXPXPXPXPXPXPXPXPXPXPXPXPXPXPXPXPXPXPXPXPXPXPXPXPXPXPXPXPXPXPXPXPXPXPXPXPXPXPXPXPXPXPXPXPXPXPXPXPXPXPXPXPXPXPXPXPXPXPXPXPXPXPXPXPX"
};
